<?xml version="1.0" standalone="no"?>
<!DOCTYPE svg PUBLIC "-//W3C//DTD SVG 20010904//EN"
 "http://www.w3.org/TR/2001/REC-SVG-20010904/DTD/svg10.dtd">
<svg version="1.0" xmlns="http://www.w3.org/2000/svg"
 width="3508.000000pt" height="2480.000000pt" viewBox="0 0 3508.000000 2480.000000"
 preserveAspectRatio="xMidYMid meet">

<g transform="translate(0.000000,2480.000000) scale(0.100000,-0.100000)"
fill="#000000" stroke="none">
<path d="M9100 20459 c-1661 -102 -3247 -722 -4555 -1782 -425 -343 -881 -801
-1232 -1234 -1528 -1883 -2186 -4361 -1807 -6813 154 -1001 494 -1987 992
-2880 957 -1714 2482 -3042 4271 -3719 708 -268 1388 -420 2201 -493 196 -18
1014 -18 1210 0 1065 95 1963 340 2869 783 803 392 1491 879 2135 1509 1134
1111 1925 2501 2311 4060 230 931 306 1928 220 2890 -155 1721 -809 3346
-1878 4663 -351 433 -807 891 -1232 1234 -1318 1069 -2895 1682 -4585 1783
-192 12 -724 11 -920 -1z m3510 -8986 c0 -5 14 -16 30 -25 17 -9 30 -24 30
-33 0 -19 -14 -19 -30 0 -20 24 -30 18 -30 -18 0 -27 5 -35 28 -43 49 -19 47
-87 -3 -100 -14 -3 -25 -12 -25 -20 0 -8 -4 -14 -10 -14 -5 0 -10 6 -10 13 0
7 -13 18 -30 24 -16 6 -30 18 -30 27 0 20 5 20 35 0 l25 -16 0 41 c0 28 -4 41
-13 41 -8 0 -22 9 -32 20 -23 25 -13 67 20 82 14 6 25 15 25 20 0 4 5 8 10 8
6 0 10 -3 10 -7z m212 -30 c20 -18 24 -63 8 -79 -8 -8 -6 -15 5 -24 20 -16 19
-49 -2 -72 -20 -23 -80 -24 -105 -1 -22 20 -23 33 -3 33 8 0 15 -4 15 -9 0
-14 37 -23 61 -16 32 11 22 59 -13 63 -31 4 -39 32 -9 32 37 0 51 50 18 63
-16 6 -57 -10 -57 -23 0 -5 -4 -10 -10 -10 -15 0 -12 21 7 42 20 22 61 23 85
1z m178 -3 c30 -30 25 -53 -25 -115 l-45 -55 45 0 c25 0 45 -4 45 -10 0 -6
-28 -10 -65 -10 -36 0 -65 4 -65 10 0 5 23 35 50 65 54 59 62 88 30 105 -15 8
-24 6 -40 -10 -22 -22 -40 -26 -40 -10 0 19 40 50 65 50 14 0 34 -9 45 -20z
m178 4 c22 -15 30 -44 13 -44 -5 0 -14 7 -21 15 -18 21 -57 19 -70 -4 -17 -33
-13 -42 16 -31 26 10 61 -1 76 -24 13 -20 8 -69 -9 -88 -22 -25 -75 -23 -99 3
-30 33 -27 129 5 163 28 30 57 33 89 10z m252 1 c0 -11 -12 -15 -45 -15 -40 0
-45 -2 -45 -23 0 -20 5 -24 32 -24 57 0 86 -63 52 -111 -13 -19 -24 -22 -56
-20 -25 2 -45 10 -52 20 -15 24 0 34 22 15 33 -30 72 -15 72 29 0 32 -24 47
-65 40 -39 -8 -40 -4 -29 67 l7 37 53 0 c41 0 54 -4 54 -15z m160 -20 c0 -8 7
-15 15 -15 8 0 15 -7 15 -15 0 -8 -7 -15 -15 -15 -11 0 -15 -12 -15 -49 0 -39
4 -52 23 -65 l22 -16 -30 2 c-29 3 -30 4 -33 62 -2 42 -8 63 -20 72 -16 12
-16 13 1 19 9 4 17 13 17 21 0 8 5 14 10 14 6 0 10 -7 10 -15z m95 -25 c4 -6
13 -5 25 2 14 9 25 9 44 0 24 -11 26 -16 26 -82 0 -40 -4 -70 -10 -70 -5 0
-10 24 -10 53 0 63 -10 80 -41 75 -22 -3 -24 -8 -27 -65 -2 -47 -7 -63 -17
-63 -12 0 -15 17 -15 80 0 73 9 97 25 70z m-420 -131 c0 -7 -8 -15 -17 -17
-18 -3 -25 18 -11 32 10 10 28 1 28 -15z m-1112 -171 c22 -21 28 -33 19 -36
-8 -2 -22 5 -33 17 -26 28 -73 28 -93 -1 -23 -32 -20 -94 4 -118 24 -24 48
-25 78 -4 30 21 28 44 -3 44 -14 0 -25 5 -25 10 0 6 18 10 40 10 35 0 40 -3
40 -24 0 -13 -9 -35 -21 -50 -16 -21 -29 -26 -64 -26 -36 0 -48 5 -69 31 -30
35 -34 84 -11 129 31 59 89 67 138 18z m87 -73 c0 -63 -4 -105 -10 -105 -6 0
-10 42 -10 105 0 63 4 105 10 105 6 0 10 -42 10 -105z m240 70 c0 -39 2 -40
30 -23 17 11 25 10 47 -2 46 -26 55 -97 17 -134 -18 -19 -65 -21 -82 -4 -9 9
-12 9 -12 0 0 -7 -4 -12 -10 -12 -6 0 -10 42 -10 105 0 63 4 105 10 105 6 0
10 -16 10 -35z m338 -73 c2 -86 0 -102 -13 -102 -12 0 -15 17 -15 106 0 80 3
105 13 102 8 -3 13 -36 15 -106z m570 0 c2 -86 0 -102 -13 -102 -12 0 -15 17
-15 106 0 80 3 105 13 102 8 -3 13 -36 15 -106z m472 73 c0 -8 7 -15 15 -15 8
0 15 -7 15 -15 0 -8 -7 -15 -15 -15 -11 0 -15 -12 -15 -50 0 -36 4 -52 15 -56
21 -8 19 -24 -3 -24 -30 0 -42 22 -42 77 0 29 -4 53 -10 53 -5 0 -10 7 -10 15
0 8 5 15 10 15 6 0 10 7 10 15 0 8 7 15 15 15 8 0 15 -7 15 -15z m260 0 c0 -8
7 -15 15 -15 8 0 15 -7 15 -15 0 -8 -7 -15 -15 -15 -11 0 -15 -12 -15 -49 0
-39 4 -52 23 -65 l22 -16 -30 2 c-29 3 -30 4 -33 62 -2 42 -8 63 -20 72 -16
12 -16 13 1 19 9 4 17 13 17 21 0 8 5 14 10 14 6 0 10 -7 10 -15z m-1725 -40
c29 -28 33 -79 9 -113 -11 -16 -25 -22 -54 -22 -47 0 -70 27 -70 81 0 29 6 43
26 58 35 27 59 26 89 -4z m333 9 c19 -13 22 -24 22 -78 l0 -63 -55 -2 c-51 -1
-57 1 -67 25 -11 23 -10 29 11 45 13 11 36 19 52 19 22 0 29 5 29 20 0 15 -7
20 -28 20 -15 0 -33 -5 -39 -11 -7 -7 -13 -7 -17 -1 -7 12 31 42 54 42 9 0 26
-7 38 -16z m232 4 c0 -9 3 -9 12 0 7 7 18 12 25 12 21 0 15 -25 -9 -35 -19 -8
-23 -19 -26 -67 -5 -87 -22 -69 -22 22 0 47 4 80 10 80 6 0 10 -5 10 -12z
m178 -5 c12 -10 24 -30 28 -45 l6 -28 -61 0 c-59 0 -61 -1 -51 -21 15 -28 37
-34 66 -19 28 16 42 7 24 -15 -20 -24 -86 -20 -104 7 -24 34 -20 85 9 113 28
29 55 32 83 8z m160 1 c19 -13 22 -24 22 -78 l0 -63 -55 -2 c-51 -1 -57 1 -67
25 -11 23 -10 29 11 45 13 11 36 19 52 19 22 0 29 5 29 20 0 15 -7 20 -28 20
-15 0 -33 -5 -39 -11 -7 -7 -13 -7 -17 -1 -7 12 31 42 54 42 9 0 26 -7 38 -16z
m310 -1 c12 -10 24 -30 28 -45 l6 -28 -61 0 c-59 0 -61 -1 -51 -21 15 -28 37
-34 66 -19 28 16 42 7 24 -15 -20 -24 -86 -20 -104 7 -24 34 -20 85 9 113 28
29 55 32 83 8z m156 1 c19 -19 11 -40 -9 -24 -16 14 -61 9 -58 -5 2 -11 11
-16 56 -34 29 -11 37 -47 15 -69 -23 -23 -98 -12 -98 14 0 17 12 18 27 3 15
-15 58 -7 58 10 0 8 -13 19 -30 24 -60 19 -73 53 -33 81 29 20 52 20 72 0z
m257 6 c16 -9 19 -22 19 -79 l0 -68 -46 -2 c-53 -1 -74 11 -74 45 0 27 12 36
60 44 22 3 35 11 35 20 0 19 -42 25 -61 9 -10 -8 -18 -9 -25 -2 -7 7 -4 16 12
27 27 18 52 20 80 6z m267 -7 c12 -10 24 -30 28 -45 l6 -28 -61 0 c-59 0 -61
-1 -51 -21 15 -28 37 -34 66 -19 28 16 42 7 24 -15 -20 -24 -86 -20 -104 7
-24 34 -20 85 9 113 28 29 55 32 83 8z"/>
<path d="M12567 11423 c-12 -12 -7 -41 8 -47 11 -4 15 2 15 24 0 29 -9 38 -23
23z"/>
<path d="M12610 11305 c0 -33 2 -35 20 -25 11 6 20 17 20 25 0 8 -9 19 -20 25
-18 10 -20 8 -20 -25z"/>
<path d="M13100 11340 c-21 -40 12 -80 53 -64 40 15 26 84 -18 84 -14 0 -29
-8 -35 -20z"/>
<path d="M12490 11024 c-20 -53 36 -110 67 -68 16 22 17 66 1 82 -22 22 -58
14 -68 -14z"/>
<path d="M12310 11024 c-19 -50 29 -104 65 -74 18 15 20 71 3 88 -22 22 -58
14 -68 -14z"/>
<path d="M12661 10981 c-17 -11 -7 -41 13 -41 28 0 46 12 46 31 0 21 -33 26
-59 10z"/>
<path d="M13067 11043 c-19 -19 -5 -33 33 -33 41 0 49 7 28 28 -13 13 -50 16
-61 5z"/>
<path d="M13231 10981 c-17 -11 -7 -41 13 -41 28 0 46 12 46 31 0 21 -33 26
-59 10z"/>
<path d="M13537 11043 c-19 -19 -5 -33 33 -33 41 0 49 7 28 28 -13 13 -50 16
-61 5z"/>
<path d="M13958 10979 c-23 -13 -12 -39 16 -39 25 0 46 17 46 37 0 15 -38 17
-62 2z"/>
<path d="M14217 11043 c-19 -19 -5 -33 33 -33 41 0 49 7 28 28 -13 13 -50 16
-61 5z"/>
<path d="M22123 14814 c-494 -60 -989 -267 -1369 -574 -43 -35 -135 -118 -203
-184 -451 -442 -732 -993 -833 -1637 -19 -124 -22 -183 -22 -429 0 -245 3
-305 22 -427 78 -499 259 -931 556 -1328 118 -157 383 -423 538 -538 389 -291
802 -460 1288 -529 123 -17 534 -17 655 0 344 49 688 162 965 317 533 299 967
782 1208 1345 245 571 302 1200 166 1807 -265 1185 -1239 2067 -2408 2182
-146 15 -424 12 -563 -5z m-223 -3341 c0 -5 14 -16 30 -25 17 -9 30 -24 30
-33 0 -19 -14 -19 -30 0 -20 24 -30 18 -30 -18 0 -27 5 -35 28 -43 49 -19 47
-87 -3 -100 -14 -3 -25 -12 -25 -20 0 -8 -4 -14 -10 -14 -5 0 -10 6 -10 13 0
7 -13 18 -30 24 -16 6 -30 18 -30 27 0 20 5 20 35 0 l25 -16 0 41 c0 28 -4 41
-13 41 -8 0 -22 9 -32 20 -23 25 -13 67 20 82 14 6 25 15 25 20 0 4 5 8 10 8
6 0 10 -3 10 -7z m170 -118 c0 -63 -4 -105 -10 -105 -6 0 -10 35 -10 85 0 47
-3 85 -6 85 -3 0 -14 -5 -25 -10 -14 -8 -19 -7 -19 2 0 12 46 47 63 48 4 0 7
-47 7 -105z m170 87 c15 -12 24 -33 27 -64 10 -86 -14 -128 -72 -128 -46 0
-65 29 -65 101 0 92 54 137 110 91z m180 0 c33 -27 39 -115 11 -159 -16 -26
-27 -33 -53 -33 -30 0 -68 23 -68 42 0 13 20 9 36 -7 9 -8 22 -15 29 -15 20 0
45 29 45 53 0 16 -3 18 -12 9 -34 -34 -98 2 -98 54 0 64 62 95 110 56z m242 1
c30 -27 23 -68 -22 -117 -22 -24 -40 -46 -40 -50 0 -3 20 -6 45 -6 25 0 45 -4
45 -10 0 -6 -30 -10 -70 -10 -38 0 -70 4 -70 8 0 5 13 21 30 37 45 43 81 100
75 117 -10 25 -44 29 -63 7 -19 -22 -32 -25 -32 -7 0 41 68 62 102 31z m178
-18 c0 -8 7 -15 15 -15 8 0 15 -7 15 -15 0 -8 -7 -15 -15 -15 -11 0 -15 -12
-15 -49 0 -39 4 -52 23 -65 l22 -16 -30 2 c-29 3 -30 4 -33 62 -2 42 -8 63
-20 72 -16 12 -16 13 1 19 9 4 17 13 17 21 0 8 5 14 10 14 6 0 10 -7 10 -15z
m95 -25 c4 -6 13 -5 25 2 14 9 25 9 44 0 24 -11 26 -16 26 -82 0 -40 -4 -70
-10 -70 -5 0 -10 24 -10 53 0 63 -10 80 -41 75 -22 -3 -24 -8 -27 -65 -2 -47
-7 -63 -17 -63 -12 0 -15 17 -15 80 0 73 9 97 25 70z m-420 -131 c0 -7 -8 -15
-17 -17 -18 -3 -25 18 -11 32 10 10 28 1 28 -15z m-715 -149 c33 -18 44 -48
26 -75 -13 -20 -13 -24 -1 -29 9 -3 15 -19 15 -40 0 -44 -20 -56 -89 -56 l-51
0 0 105 0 105 41 0 c22 0 49 -5 59 -10z m420 -5 c0 -8 -7 -15 -15 -15 -8 0
-15 7 -15 15 0 8 7 15 15 15 8 0 15 -7 15 -15z m-312 -101 c4 -71 23 -91 56
-58 11 10 16 34 16 70 0 30 5 54 10 54 6 0 10 -33 10 -80 0 -47 -4 -80 -10
-80 -5 0 -10 5 -10 12 0 9 -3 9 -12 0 -19 -19 -66 -15 -78 7 -15 29 -13 144 3
139 7 -3 13 -28 15 -64z m231 50 c17 -12 20 -19 11 -28 -8 -8 -13 -7 -19 2 -9
15 -53 13 -58 -3 -2 -6 16 -19 39 -30 45 -21 58 -46 38 -70 -16 -20 -84 -19
-100 0 -18 22 -4 31 24 15 14 -7 32 -10 40 -7 26 10 18 35 -14 42 -31 7 -60
29 -60 46 0 16 39 49 58 49 10 0 28 -7 41 -16z m79 -67 c2 -64 0 -77 -13 -77
-12 0 -15 15 -15 81 0 60 3 80 13 77 8 -3 13 -31 15 -81z m67 73 c4 -6 13 -5
25 2 14 9 25 9 44 0 24 -11 26 -16 26 -82 0 -40 -4 -70 -10 -70 -5 0 -10 24
-10 53 0 63 -10 80 -41 75 -22 -3 -24 -8 -27 -65 -2 -47 -7 -63 -17 -63 -12 0
-15 17 -15 80 0 73 9 97 25 70z m243 -7 c12 -10 24 -30 28 -45 l6 -28 -61 0
c-59 0 -61 -1 -51 -21 15 -28 37 -34 66 -19 28 16 42 7 24 -15 -20 -24 -86
-20 -104 7 -24 34 -20 85 9 113 28 29 55 32 83 8z m156 1 c19 -19 11 -40 -9
-24 -16 14 -61 9 -58 -5 2 -11 11 -16 56 -34 29 -11 37 -47 15 -69 -23 -23
-98 -12 -98 14 0 17 12 18 27 3 15 -15 58 -7 58 10 0 8 -13 19 -30 24 -60 19
-73 53 -33 81 29 20 52 20 72 0z m150 0 c19 -19 11 -40 -9 -24 -16 14 -61 9
-58 -5 2 -11 11 -16 56 -34 29 -11 37 -47 15 -69 -23 -23 -98 -12 -98 14 0 17
12 18 27 3 15 -15 58 -7 58 10 0 8 -13 19 -30 24 -60 19 -73 53 -33 81 29 20
52 20 72 0z m154 -1 c12 -10 24 -30 28 -45 l6 -28 -61 0 c-59 0 -61 -1 -51
-21 15 -28 37 -34 66 -19 28 16 42 7 24 -15 -20 -24 -86 -20 -104 7 -24 34
-20 85 9 113 28 29 55 32 83 8z m156 1 c19 -19 11 -40 -9 -24 -16 14 -61 9
-58 -5 2 -11 11 -16 56 -34 29 -11 37 -47 15 -69 -23 -23 -98 -12 -98 14 0 17
12 18 27 3 15 -15 58 -7 58 10 0 8 -13 19 -30 24 -60 19 -73 53 -33 81 29 20
52 20 72 0z"/>
<path d="M21857 11423 c-12 -12 -7 -41 8 -47 11 -4 15 2 15 24 0 29 -9 38 -23
23z"/>
<path d="M21900 11305 c0 -33 2 -35 20 -25 11 6 20 17 20 25 0 8 -9 19 -20 25
-18 10 -20 8 -20 -25z"/>
<path d="M22176 11425 c-21 -22 -30 -59 -22 -97 8 -39 23 -58 47 -58 27 0 40
34 37 92 -2 39 -8 54 -24 65 -19 12 -24 12 -38 -2z"/>
<path d="M22340 11411 c-21 -41 21 -81 58 -55 38 26 22 74 -25 74 -12 0 -27
-9 -33 -19z"/>
<path d="M21730 11070 c0 -30 2 -31 38 -28 32 3 37 6 37 28 0 22 -5 25 -37 28
-36 3 -38 2 -38 -28z"/>
<path d="M21730 10976 c0 -33 3 -36 28 -36 16 0 37 6 48 14 28 22 7 50 -40 54
-35 3 -36 2 -36 -32z"/>
<path d="M22457 11043 c-19 -19 -5 -33 33 -33 41 0 49 7 28 28 -13 13 -50 16
-61 5z"/>
<path d="M22917 11043 c-19 -19 -5 -33 33 -33 41 0 49 7 28 28 -13 13 -50 16
-61 5z"/>
<path d="M27865 12296 c-67 -21 -100 -43 -148 -96 -54 -60 -79 -126 -78 -211
0 -87 24 -150 82 -213 63 -69 130 -99 219 -99 89 0 156 30 219 99 160 175 86
451 -138 518 -64 19 -101 19 -156 2z"/>
<path d="M31092 12063 c-15 -6 -42 -56 -42 -78 0 -23 54 -75 79 -75 34 0 74
43 74 80 0 54 -60 94 -111 73z"/>
<path d="M27498 11462 c-9 -9 -24 -23 -32 -30 -25 -20 -19 -51 14 -70 25 -14
30 -23 30 -54 0 -42 -5 -46 -32 -21 -10 9 -20 14 -23 11 -10 -10 7 -37 28 -44
12 -4 25 -12 30 -18 5 -8 9 -8 15 0 4 6 17 14 29 18 26 8 41 51 26 75 -5 9
-19 20 -31 26 -17 7 -22 18 -22 47 0 29 3 36 15 32 8 -4 15 -10 15 -15 0 -5 7
-9 15 -9 25 0 17 20 -15 38 -16 9 -30 20 -30 25 0 11 -14 7 -32 -11z m12 -62
c0 -31 -16 -41 -26 -15 -8 19 2 45 16 45 5 0 10 -13 10 -30z m54 -82 c7 -12 6
-21 -3 -32 -21 -25 -31 -19 -31 20 0 37 14 42 34 12z"/>
<path d="M30638 11462 c-9 -9 -24 -23 -32 -30 -25 -20 -19 -51 14 -70 25 -14
30 -23 30 -54 0 -42 -5 -46 -32 -21 -10 9 -20 14 -23 11 -10 -10 7 -37 28 -44
12 -4 25 -12 30 -18 5 -8 9 -8 15 0 4 6 17 14 29 18 26 8 41 51 26 75 -5 9
-19 20 -31 26 -17 7 -22 18 -22 47 0 29 3 36 15 32 8 -4 15 -10 15 -15 0 -5 7
-9 15 -9 25 0 17 20 -15 38 -16 9 -30 20 -30 25 0 11 -14 7 -32 -11z m12 -62
c0 -31 -16 -41 -26 -15 -8 19 2 45 16 45 5 0 10 -13 10 -30z m54 -82 c7 -12 6
-21 -3 -32 -21 -25 -31 -19 -31 20 0 37 14 42 34 12z"/>
<path d="M27792 11444 c-22 -15 -30 -44 -12 -44 6 0 10 4 10 10 0 18 39 31 60
20 32 -17 24 -44 -30 -103 -27 -30 -50 -60 -50 -66 0 -7 23 -11 60 -11 33 0
60 4 60 10 0 6 -21 10 -46 10 l-46 0 46 51 c53 59 60 98 24 123 -12 9 -29 16
-38 16 -9 0 -26 -7 -38 -16z"/>
<path d="M30799 11441 c-31 -25 -19 -38 14 -16 20 13 30 14 46 5 12 -6 21 -15
21 -20 0 -24 -15 -40 -36 -40 -32 0 -31 -18 1 -26 55 -14 50 -74 -6 -74 -17 0
-32 6 -35 15 -6 16 -34 21 -34 7 0 -20 39 -42 72 -42 60 0 92 62 48 93 -18 13
-19 16 -5 27 22 18 18 56 -7 74 -30 21 -51 20 -79 -3z"/>
<path d="M31040 11440 c-11 -11 -20 -24 -20 -30 0 -17 21 -11 40 13 15 18 22
20 37 11 34 -21 27 -51 -26 -112 -28 -32 -51 -62 -51 -65 0 -4 29 -7 65 -7 74
0 89 17 19 22 l-46 3 40 46 c52 58 61 90 33 118 -26 26 -65 27 -91 1z"/>
<path d="M27649 11431 c-13 -11 -21 -23 -16 -27 4 -4 13 -2 19 4 23 23 28 11
28 -73 0 -69 3 -85 15 -85 12 0 15 18 15 100 0 91 -2 100 -19 100 -10 0 -29
-9 -42 -19z"/>
<path d="M28008 11436 c-29 -22 -22 -41 7 -22 l25 16 0 -90 c0 -53 4 -90 10
-90 6 0 10 40 10 100 0 89 -2 100 -17 100 -10 0 -26 -7 -35 -14z"/>
<path d="M28210 11421 c0 -11 -6 -22 -12 -24 -10 -4 -10 -6 0 -6 8 -1 12 -20
12 -59 0 -32 5 -63 12 -70 15 -15 48 -16 48 -2 0 6 -6 10 -14 10 -18 0 -26 22
-26 71 0 32 4 41 23 49 18 7 19 9 4 9 -11 1 -21 10 -24 21 -7 25 -23 26 -23 1z"/>
<path d="M31283 11415 c-6 -14 -7 -27 -2 -31 5 -3 9 -32 9 -64 0 -56 2 -60 25
-66 33 -8 43 1 16 16 -17 9 -21 20 -21 65 0 43 4 54 18 58 16 4 16 5 0 6 -11
1 -18 9 -18 21 0 27 -13 25 -27 -5z"/>
<path d="M28310 11323 c0 -42 4 -73 10 -73 6 0 10 27 10 60 0 48 4 61 19 70
41 21 61 -7 61 -87 0 -24 5 -43 10 -43 13 0 13 106 0 131 -9 16 -20 19 -60 18
l-50 -2 0 -74z"/>
<path d="M31380 11323 c0 -42 4 -73 10 -73 6 0 10 27 10 60 0 48 4 61 19 70
41 21 61 -7 61 -87 0 -24 5 -43 10 -43 13 0 13 106 0 131 -9 16 -20 19 -60 18
l-50 -2 0 -74z"/>
<path d="M27940 11265 c0 -8 7 -15 15 -15 8 0 15 7 15 15 0 8 -7 15 -15 15 -8
0 -15 -7 -15 -15z"/>
<path d="M30950 11265 c0 -8 7 -15 15 -15 8 0 15 7 15 15 0 8 -7 15 -15 15 -8
0 -15 -7 -15 -15z"/>
<path d="M27679 11101 c-39 -40 -42 -114 -4 -155 49 -53 145 -22 145 47 0 24
-4 27 -35 27 -19 0 -35 -4 -35 -10 0 -5 11 -10 25 -10 30 0 32 -13 5 -40 -28
-28 -64 -25 -89 6 -39 49 -20 123 36 139 17 4 30 -1 48 -19 29 -29 50 -34 41
-10 -3 9 -6 17 -6 20 0 8 -60 34 -80 34 -12 0 -35 -13 -51 -29z"/>
<path d="M28030 11020 c0 -60 4 -100 10 -100 6 0 10 40 10 100 0 60 -4 100
-10 100 -6 0 -10 -40 -10 -100z"/>
<path d="M28200 11092 c0 -26 -2 -27 -39 -24 -31 3 -42 0 -55 -19 -35 -51 -9
-129 43 -129 15 0 32 5 39 12 9 9 12 9 12 0 0 -7 5 -12 10 -12 6 0 10 40 10
100 0 60 -4 100 -10 100 -5 0 -10 -12 -10 -28z m-8 -56 c12 -17 9 -71 -4 -84
-21 -21 -58 -14 -68 14 -14 37 -12 52 10 74 20 20 47 18 62 -4z"/>
<path d="M30760 11020 l0 -100 51 0 c43 0 55 5 80 29 24 24 29 38 29 76 0 67
-30 95 -105 95 l-55 0 0 -100z m106 72 c23 -15 36 -54 29 -88 -7 -41 -42 -67
-82 -62 -28 3 -28 4 -31 81 l-3 77 38 0 c21 0 43 -4 49 -8z"/>
<path d="M31123 11085 c-6 -14 -7 -27 -2 -31 5 -3 9 -32 9 -64 0 -56 2 -60 25
-66 33 -8 43 1 16 16 -17 9 -21 20 -21 65 0 43 4 54 18 58 16 4 16 5 0 6 -11
1 -18 9 -18 21 0 27 -13 25 -27 -5z"/>
<path d="M27876 11054 c-23 -22 -21 -96 2 -117 27 -25 78 -22 96 5 22 31 20
91 -2 111 -23 21 -76 22 -96 1z m92 -47 c4 -36 -15 -67 -41 -67 -32 0 -47 18
-47 56 0 44 34 70 65 50 11 -7 21 -25 23 -39z"/>
<path d="M30971 11061 c-7 -5 -11 -14 -7 -20 5 -7 15 -6 32 6 23 15 27 15 41
1 21 -22 10 -34 -37 -42 -31 -5 -41 -11 -46 -31 -4 -15 -1 -32 6 -40 15 -18
61 -20 78 -3 9 9 12 9 12 0 0 -7 5 -12 10 -12 14 0 13 123 -2 138 -14 14 -67
16 -87 3z m69 -106 c-14 -17 -56 -20 -65 -5 -10 16 13 38 43 42 30 3 40 -15
22 -37z"/>
<path d="M31231 11057 c-17 -21 -2 -28 24 -11 27 18 55 9 55 -17 0 -14 -7 -19
-26 -19 -41 0 -64 -18 -64 -50 0 -33 15 -40 78 -38 l42 2 0 54 c0 74 -12 92
-59 92 -21 0 -44 -6 -50 -13z m80 -89 c-10 -29 -58 -37 -68 -13 -7 21 12 35
49 35 24 0 26 -3 19 -22z"/>
</g>
</svg>
