<?xml version="1.0" standalone="no"?>
<!DOCTYPE svg PUBLIC "-//W3C//DTD SVG 20010904//EN"
 "http://www.w3.org/TR/2001/REC-SVG-20010904/DTD/svg10.dtd">
<svg version="1.0" xmlns="http://www.w3.org/2000/svg"
 width="3183.000000pt" height="1908.000000pt" viewBox="0 0 3183.000000 1908.000000"
 preserveAspectRatio="xMidYMid meet">

<g transform="translate(0.000000,1908.000000) scale(0.100000,-0.100000)"
fill="#000000" stroke="none">
<path d="M8305 17749 c-1587 -108 -3041 -648 -4300 -1594 -1236 -930 -2194
-2188 -2770 -3639 -333 -840 -522 -1673 -597 -2626 -17 -219 -17 -991 0 -1210
61 -785 194 -1455 426 -2155 506 -1522 1406 -2846 2626 -3861 851 -709 1853
-1242 2897 -1543 704 -203 1338 -297 2078 -308 491 -8 813 12 1268 77 1307
188 2562 711 3635 1514 339 254 587 470 898 780 663 664 1164 1359 1588 2206
420 840 692 1713 826 2650 65 457 84 740 84 1245 0 505 -19 788 -84 1245 -221
1550 -850 3000 -1823 4203 -344 426 -789 872 -1217 1222 -741 605 -1597 1081
-2485 1381 -637 216 -1200 335 -1895 400 -204 19 -947 28 -1155 13z m-475
-9148 c0 -13 11 -23 36 -31 31 -11 74 -58 74 -82 0 -17 -49 -7 -55 10 -3 11
-17 24 -30 30 l-25 12 0 -64 c0 -59 2 -64 24 -70 14 -3 38 -18 55 -32 43 -36
44 -93 2 -135 -16 -16 -39 -29 -50 -29 -14 0 -25 -9 -31 -25 -11 -30 -30 -33
-37 -5 -3 11 -20 24 -39 30 -37 13 -74 53 -74 81 0 27 37 24 51 -3 13 -26 28
-38 47 -38 8 0 12 19 12 64 0 62 -1 64 -29 74 -74 26 -96 105 -43 154 15 14
37 29 50 33 13 4 22 14 22 26 0 12 7 19 20 19 13 0 20 -7 20 -19z m353 -32
c60 -31 74 -97 31 -148 -14 -17 -21 -31 -15 -31 25 0 51 -41 51 -79 0 -75 -76
-124 -157 -102 -43 12 -83 47 -83 73 0 26 29 22 56 -7 44 -48 144 -24 144 35
0 30 -35 59 -80 66 -53 9 -51 36 3 45 48 8 60 20 60 60 0 37 -24 59 -63 59
-31 0 -70 -25 -70 -46 0 -8 -10 -14 -25 -14 -29 0 -30 2 -10 40 27 52 105 76
158 49z m310 0 c57 -29 73 -97 38 -155 -10 -17 -47 -61 -81 -98 l-62 -66 86 0
c79 0 86 -2 86 -20 0 -19 -7 -20 -115 -20 -104 0 -115 2 -115 18 0 10 38 60
85 112 46 52 87 107 90 122 17 76 -77 109 -120 41 -11 -18 -28 -32 -37 -33
-30 0 -21 39 16 76 37 37 85 45 129 23z m317 -4 c25 -13 60 -60 60 -80 0 -3
-11 -5 -23 -5 -16 0 -28 9 -35 25 -15 31 -57 43 -91 24 -28 -16 -45 -46 -55
-97 l-6 -34 31 26 c79 66 188 -3 176 -111 -6 -53 -36 -89 -88 -104 -31 -10
-43 -9 -75 7 -64 32 -79 62 -79 162 0 66 5 97 19 126 34 68 104 93 166 61z
m468 -12 c-3 -15 -16 -18 -81 -21 -76 -3 -77 -3 -77 -30 0 -15 -3 -38 -7 -51
-5 -21 -4 -22 15 -12 48 26 121 2 147 -49 55 -106 -41 -221 -148 -176 -35 14
-67 50 -67 73 0 22 37 14 54 -12 24 -36 86 -35 115 1 29 37 26 70 -9 106 -27
26 -35 29 -63 23 -38 -9 -86 -12 -88 -5 -1 3 1 42 5 88 l7 82 100 0 c90 0 100
-2 97 -17z m282 -38 c0 -32 2 -35 30 -35 20 0 30 -5 30 -15 0 -10 -10 -15 -30
-15 l-31 0 3 -97 3 -98 28 -3 c19 -2 27 -9 27 -23 0 -15 -7 -19 -33 -19 -55 0
-66 22 -69 135 -3 95 -4 100 -25 103 -13 2 -23 10 -23 17 0 7 10 15 23 17 17
2 23 11 25 36 2 24 8 32 23 32 15 0 19 -7 19 -35z m290 -40 c37 -19 50 -64 50
-177 0 -87 0 -88 -25 -88 l-25 0 0 100 c0 87 -3 103 -20 120 -27 27 -56 25
-85 -5 -23 -22 -25 -32 -25 -120 0 -88 -1 -95 -20 -95 -19 0 -20 7 -20 135 0
128 1 135 20 135 12 0 20 -7 20 -17 0 -14 2 -15 18 -1 35 31 70 35 112 13z
m-865 -235 c0 -18 -6 -26 -23 -28 -24 -4 -38 18 -28 44 3 9 15 14 28 12 17 -2
23 -10 23 -28z m-1995 -278 c31 -15 80 -72 80 -93 0 -23 -47 -6 -72 25 -85
107 -222 2 -189 -145 20 -91 113 -129 179 -74 16 14 32 36 34 50 5 24 3 25
-43 25 -42 0 -49 3 -49 20 0 18 7 20 70 20 l70 0 0 -42 c0 -83 -62 -141 -151
-142 -60 0 -107 28 -136 83 -38 73 -27 186 25 245 41 45 122 58 182 28z m190
-172 c0 -173 -1 -180 -20 -180 -19 0 -20 7 -20 180 0 173 1 180 20 180 19 0
20 -7 20 -180z m420 120 l0 -61 29 22 c58 43 139 2 161 -81 34 -127 -86 -241
-172 -163 -16 15 -18 15 -18 0 0 -11 -8 -17 -25 -17 l-25 0 0 180 0 180 25 0
c24 0 25 -3 25 -60z m590 -120 c0 -173 -1 -180 -20 -180 -19 0 -20 7 -20 180
0 173 1 180 20 180 19 0 20 -7 20 -180z m1010 0 c0 -173 -1 -180 -20 -180 -19
0 -20 7 -20 180 0 173 1 180 20 180 19 0 20 -7 20 -180z m830 125 c0 -32 2
-35 30 -35 20 0 30 -5 30 -15 0 -10 -10 -15 -30 -15 l-31 0 3 -97 3 -98 28 -3
c19 -2 27 -9 27 -23 0 -15 -7 -19 -33 -19 -55 0 -66 22 -69 135 -3 95 -4 100
-25 103 -13 2 -23 10 -23 17 0 7 10 15 23 17 17 2 23 11 25 36 2 24 8 32 23
32 15 0 19 -7 19 -35z m460 0 c0 -32 2 -35 30 -35 20 0 30 -5 30 -15 0 -10
-10 -15 -30 -15 l-31 0 3 -97 3 -98 28 -3 c19 -2 27 -9 27 -23 0 -15 -7 -19
-33 -19 -55 0 -66 22 -69 135 -3 95 -4 100 -25 103 -13 2 -23 10 -23 17 0 7
10 15 23 17 17 2 23 11 25 36 2 24 8 32 23 32 15 0 19 -7 19 -35z m-3036 -64
c29 -29 31 -36 31 -105 0 -65 -3 -78 -24 -100 -13 -14 -39 -30 -58 -36 -114
-38 -202 105 -135 222 37 65 131 74 186 19z m555 28 c17 -6 36 -19 41 -29 6
-10 10 -68 10 -129 0 -104 -1 -111 -20 -111 -12 0 -20 7 -20 16 0 13 -5 12
-26 -5 -33 -26 -70 -27 -110 -2 -35 22 -49 58 -34 95 11 30 32 42 85 51 76 12
85 15 85 32 0 24 -30 53 -55 53 -12 0 -34 -9 -49 -21 -32 -25 -72 -18 -56 10
11 21 66 50 96 51 12 0 35 -5 53 -11z m539 -10 c-2 -16 -11 -23 -33 -25 -52
-5 -65 -34 -65 -140 0 -87 -1 -94 -20 -94 -19 0 -20 7 -20 135 0 128 1 135 20
135 12 0 20 -7 20 -17 0 -11 3 -14 8 -7 11 17 45 33 70 34 18 0 23 -5 20 -21z
m187 7 c41 -18 62 -48 71 -103 l7 -43 -102 0 c-115 0 -124 -8 -71 -62 26 -25
36 -29 63 -24 18 3 38 15 45 25 11 16 52 20 52 4 0 -39 -73 -78 -129 -68 -68
12 -104 59 -104 139 0 63 24 109 67 130 39 19 58 20 101 2z m284 3 c17 -6 36
-19 41 -29 6 -10 10 -68 10 -129 0 -104 -1 -111 -20 -111 -12 0 -20 7 -20 16
0 13 -5 12 -26 -5 -33 -26 -70 -27 -110 -2 -35 22 -49 58 -34 95 11 30 32 42
85 51 76 12 85 15 85 32 0 24 -30 53 -55 53 -12 0 -34 -9 -49 -21 -32 -25 -72
-18 -56 10 11 21 66 50 96 51 12 0 35 -5 53 -11z m556 -3 c41 -18 62 -48 71
-103 l7 -43 -102 0 c-115 0 -124 -8 -71 -62 26 -25 36 -29 63 -24 18 3 38 15
45 25 11 16 52 20 52 4 0 -39 -73 -78 -129 -68 -68 12 -104 59 -104 139 0 63
24 109 67 130 39 19 58 20 101 2z m271 4 c25 -10 53 -36 54 -51 1 -17 -33 -16
-50 1 -23 23 -58 26 -84 7 -31 -22 -16 -51 34 -65 66 -19 94 -37 105 -67 20
-55 -55 -115 -128 -101 -37 7 -77 39 -77 61 0 23 33 22 57 -2 25 -25 39 -28
78 -13 19 7 26 16 23 31 -3 25 -15 33 -77 51 -88 26 -104 103 -30 140 39 21
57 22 95 8z m453 -1 c17 -6 36 -19 41 -29 6 -10 10 -68 10 -129 0 -104 -1
-111 -20 -111 -12 0 -20 7 -20 16 0 13 -5 12 -26 -5 -33 -26 -70 -27 -110 -2
-35 22 -49 58 -34 95 11 30 32 42 85 51 76 12 85 15 85 32 0 24 -30 53 -55 53
-12 0 -34 -9 -49 -21 -32 -25 -72 -18 -56 10 11 21 66 50 96 51 12 0 35 -5 53
-11z m466 -3 c41 -18 62 -48 71 -103 l7 -43 -102 0 c-115 0 -124 -8 -71 -62
26 -25 36 -29 63 -24 18 3 38 15 45 25 11 16 52 20 52 4 0 -39 -73 -78 -129
-68 -68 12 -104 59 -104 139 0 63 24 109 67 130 39 19 58 20 101 2z"/>
<path d="M7756 8519 c-30 -24 -33 -49 -8 -72 32 -30 42 -21 42 38 0 30 -2 55
-4 55 -2 0 -15 -9 -30 -21z"/>
<path d="M7830 8310 c0 -52 3 -61 16 -58 25 5 56 51 48 71 -3 10 -19 24 -35
33 l-29 15 0 -61z"/>
<path d="M8699 8381 c-34 -35 -37 -68 -8 -105 16 -20 29 -26 60 -26 34 0 42 5
59 33 25 39 19 73 -16 105 -34 30 -60 28 -95 -7z"/>
<path d="M7625 7825 c-20 -20 -25 -34 -25 -78 0 -62 18 -92 62 -103 42 -9 88
40 88 96 0 70 -32 109 -88 110 -7 0 -24 -11 -37 -25z"/>
<path d="M7319 7821 c-24 -24 -29 -38 -29 -76 0 -38 5 -52 29 -76 36 -35 61
-37 98 -5 25 21 28 31 28 81 0 50 -3 60 -28 81 -37 32 -62 30 -98 -5z"/>
<path d="M7952 7729 c-55 -11 -62 -15 -62 -44 0 -26 25 -45 58 -45 33 0 72 38
72 71 0 31 -1 32 -68 18z"/>
<path d="M8655 7838 c-24 -14 -44 -39 -45 -55 0 -9 21 -13 75 -13 84 0 95 11
50 55 -26 27 -49 31 -80 13z"/>
<path d="M8962 7729 c-55 -11 -62 -15 -62 -44 0 -26 25 -45 58 -45 33 0 72 38
72 71 0 31 -1 32 -68 18z"/>
<path d="M9495 7838 c-24 -14 -44 -39 -45 -55 0 -9 21 -13 75 -13 84 0 95 11
50 55 -26 27 -49 31 -80 13z"/>
<path d="M10242 7729 c-55 -11 -62 -15 -62 -44 0 -26 25 -45 58 -45 33 0 72
38 72 71 0 31 -1 32 -68 18z"/>
<path d="M10685 7838 c-24 -14 -44 -39 -45 -55 0 -9 21 -13 75 -13 84 0 95 11
50 55 -26 27 -49 31 -80 13z"/>
<path d="M21585 12113 c-380 -44 -644 -119 -950 -268 -301 -147 -597 -372
-823 -624 -397 -445 -636 -974 -718 -1586 -21 -157 -23 -509 -5 -665 79 -677
360 -1268 821 -1730 220 -220 452 -386 735 -525 595 -293 1269 -353 1902 -171
446 129 820 352 1164 695 451 452 713 978 816 1641 22 144 25 623 5 765 -98
678 -374 1241 -830 1693 -437 431 -986 696 -1592 767 -111 13 -440 19 -525 8z
m-705 -3512 c0 -13 11 -23 36 -31 31 -11 74 -58 74 -82 0 -17 -49 -7 -55 10
-3 11 -17 24 -30 30 l-25 12 0 -64 c0 -59 2 -64 24 -70 14 -3 38 -18 55 -32
43 -36 44 -93 2 -135 -16 -16 -39 -29 -50 -29 -14 0 -25 -9 -31 -25 -11 -30
-30 -33 -37 -5 -3 11 -20 24 -39 30 -37 13 -74 53 -74 81 0 27 37 24 51 -3 13
-26 28 -38 47 -38 8 0 12 19 12 64 0 62 -1 64 -29 74 -74 26 -96 105 -43 154
15 14 37 29 50 33 13 4 22 14 22 26 0 12 7 19 20 19 13 0 20 -7 20 -19z m591
-37 c45 -23 69 -83 69 -173 0 -55 -5 -86 -20 -117 -52 -107 -187 -88 -220 32
-18 63 -8 173 18 216 35 57 94 73 153 42z m315 -3 c45 -27 67 -91 62 -178 -6
-121 -66 -192 -148 -178 -38 7 -85 45 -93 76 -8 29 37 25 57 -6 13 -19 25 -25
55 -25 45 0 64 18 80 75 15 56 14 59 -15 36 -32 -25 -100 -28 -132 -5 -12 8
-29 28 -37 44 -57 111 65 225 171 161z m417 8 c57 -29 73 -97 38 -155 -10 -17
-47 -61 -81 -98 l-62 -66 86 0 c79 0 86 -2 86 -20 0 -19 -7 -20 -115 -20 -104
0 -115 2 -115 18 0 10 38 60 85 112 46 52 87 107 90 122 17 76 -77 109 -120
41 -11 -18 -28 -32 -37 -33 -30 0 -21 39 16 76 37 37 85 45 129 23z m-1013
-179 l0 -180 -25 0 -25 0 0 155 c0 85 -3 155 -6 155 -3 0 -18 -8 -32 -18 -49
-34 -52 -35 -52 -10 0 28 71 78 113 78 l27 0 0 -180z m1360 125 c0 -32 2 -35
30 -35 20 0 30 -5 30 -15 0 -10 -10 -15 -30 -15 l-31 0 3 -97 3 -98 28 -3 c19
-2 27 -9 27 -23 0 -15 -7 -19 -33 -19 -55 0 -66 22 -69 135 -3 95 -4 100 -25
103 -13 2 -23 10 -23 17 0 7 10 15 23 17 17 2 23 11 25 36 2 24 8 32 23 32 15
0 19 -7 19 -35z m290 -40 c37 -19 50 -64 50 -177 0 -87 0 -88 -25 -88 l-25 0
0 100 c0 87 -3 103 -20 120 -27 27 -56 25 -85 -5 -23 -22 -25 -32 -25 -120 0
-88 -1 -95 -20 -95 -19 0 -20 7 -20 135 0 128 1 135 20 135 12 0 20 -7 20 -17
0 -14 2 -15 18 -1 35 31 70 35 112 13z m-875 -235 c0 -18 -6 -26 -23 -28 -24
-4 -38 18 -28 44 3 9 15 14 28 12 17 -2 23 -10 23 -28z m-525 -265 c17 -20 5
-45 -20 -45 -11 0 -23 7 -26 15 -6 15 11 45 26 45 4 0 13 -7 20 -15z m-695
-30 c32 -31 34 -96 5 -125 -19 -19 -19 -19 10 -49 32 -32 38 -64 18 -106 -19
-42 -56 -55 -158 -55 l-90 0 0 180 0 180 95 0 c88 0 98 -2 120 -25z m531 -65
c25 -10 53 -36 54 -51 1 -17 -33 -16 -50 1 -23 23 -58 26 -84 7 -31 -22 -16
-51 34 -65 66 -19 94 -37 105 -67 20 -55 -55 -115 -128 -101 -37 7 -77 39 -77
61 0 23 33 22 57 -2 25 -25 39 -28 78 -13 19 7 26 16 23 31 -3 25 -15 33 -77
51 -88 26 -104 103 -30 140 39 21 57 22 95 8z m414 -5 c37 -19 50 -64 50 -177
0 -87 0 -88 -25 -88 l-25 0 0 100 c0 87 -3 103 -20 120 -27 27 -56 25 -85 -5
-23 -22 -25 -32 -25 -120 0 -88 -1 -95 -20 -95 -19 0 -20 7 -20 135 0 128 1
135 20 135 12 0 20 -7 20 -17 0 -14 2 -15 18 -1 35 31 70 35 112 13z m275 1
c41 -18 62 -48 71 -103 l7 -43 -102 0 c-115 0 -124 -8 -71 -62 26 -25 36 -29
63 -24 18 3 38 15 45 25 11 16 52 20 52 4 0 -39 -73 -78 -129 -68 -68 12 -104
59 -104 139 0 63 24 109 67 130 39 19 58 20 101 2z m281 4 c25 -10 53 -36 54
-51 1 -17 -33 -16 -50 1 -23 23 -58 26 -84 7 -31 -22 -16 -51 34 -65 66 -19
94 -37 105 -67 20 -55 -55 -115 -128 -101 -37 7 -77 39 -77 61 0 23 33 22 57
-2 25 -25 39 -28 78 -13 19 7 26 16 23 31 -3 25 -15 33 -77 51 -88 26 -104
103 -30 140 39 21 57 22 95 8z m260 0 c25 -10 53 -36 54 -51 1 -17 -33 -16
-50 1 -23 23 -58 26 -84 7 -31 -22 -16 -51 34 -65 66 -19 94 -37 105 -67 20
-55 -55 -115 -128 -101 -37 7 -77 39 -77 61 0 23 33 22 57 -2 25 -25 39 -28
78 -13 19 7 26 16 23 31 -3 25 -15 33 -77 51 -88 26 -104 103 -30 140 39 21
57 22 95 8z m279 -4 c41 -18 62 -48 71 -103 l7 -43 -102 0 c-115 0 -124 -8
-71 -62 26 -25 36 -29 63 -24 18 3 38 15 45 25 11 16 52 20 52 4 0 -39 -73
-78 -129 -68 -68 12 -104 59 -104 139 0 63 24 109 67 130 39 19 58 20 101 2z
m271 4 c25 -10 53 -36 54 -51 1 -17 -33 -16 -50 1 -23 23 -58 26 -84 7 -31
-22 -16 -51 34 -65 66 -19 94 -37 105 -67 20 -55 -55 -115 -128 -101 -37 7
-77 39 -77 61 0 23 33 22 57 -2 25 -25 39 -28 78 -13 19 7 26 16 23 31 -3 25
-15 33 -77 51 -88 26 -104 103 -30 140 39 21 57 22 95 8z m-2166 -93 c0 -107
13 -137 60 -137 51 0 70 38 70 141 0 82 2 89 20 89 19 0 20 -7 20 -135 0 -128
-1 -135 -20 -135 -13 0 -20 7 -20 20 l0 20 -20 -20 c-31 -31 -102 -28 -129 6
-18 23 -21 41 -21 135 0 102 1 109 20 109 19 0 20 -7 20 -93z m550 -42 c0
-128 -1 -135 -20 -135 -19 0 -20 7 -20 135 0 128 1 135 20 135 19 0 20 -7 20
-135z"/>
<path d="M20806 8519 c-30 -24 -33 -49 -8 -72 32 -30 42 -21 42 38 0 30 -2 55
-4 55 -2 0 -15 -9 -30 -21z"/>
<path d="M20880 8310 c0 -52 3 -61 16 -58 25 5 56 51 48 71 -3 10 -19 24 -35
33 l-29 15 0 -61z"/>
<path d="M21367 8511 c-30 -36 -41 -110 -27 -179 14 -61 37 -85 81 -80 43 4
69 41 76 109 14 137 -64 228 -130 150z"/>
<path d="M21677 8520 c-34 -27 -38 -89 -7 -120 30 -30 83 -27 109 6 59 75 -28
172 -102 114z"/>
<path d="M20580 7875 l0 -55 58 0 c64 0 92 18 92 57 0 35 -31 53 -93 53 l-57
0 0 -55z"/>
<path d="M20580 7710 l0 -60 58 0 c69 0 102 19 102 59 0 44 -27 61 -98 61
l-62 0 0 -60z"/>
<path d="M21885 7838 c-24 -14 -44 -39 -45 -55 0 -9 21 -13 75 -13 84 0 95 11
50 55 -26 27 -49 31 -80 13z"/>
<path d="M22705 7838 c-24 -14 -44 -39 -45 -55 0 -9 21 -13 75 -13 84 0 95 11
50 55 -26 27 -49 31 -80 13z"/>
<path d="M27243 9586 c-103 -34 -173 -105 -205 -209 -26 -88 -20 -157 22 -243
35 -71 72 -107 148 -142 110 -50 239 -26 328 62 192 192 72 524 -195 542 -31
2 -75 -2 -98 -10z"/>
<path d="M30465 9335 c-33 -32 -33 -78 1 -112 20 -20 31 -24 57 -19 65 13 89
85 42 131 -13 14 -36 25 -50 25 -14 0 -37 -11 -50 -25z"/>
<path d="M26580 8601 c0 -13 -11 -23 -35 -31 -76 -25 -100 -107 -44 -154 17
-14 41 -29 55 -32 22 -6 24 -11 24 -70 0 -58 -2 -64 -20 -64 -12 0 -31 11 -44
25 -26 28 -56 33 -56 10 0 -24 46 -65 81 -72 19 -3 34 -14 36 -25 6 -22 23
-24 23 -3 0 9 8 18 18 21 56 19 74 30 87 55 32 60 10 109 -61 139 l-44 19 0
55 c0 30 3 57 8 59 14 9 54 -13 59 -33 7 -27 43 -27 43 0 0 27 -43 67 -81 75
-20 5 -29 13 -29 26 0 10 -4 19 -10 19 -5 0 -10 -9 -10 -19z m0 -121 c0 -27
-4 -51 -9 -55 -5 -3 -22 5 -37 18 -32 28 -28 67 8 84 33 15 38 8 38 -47z m83
-138 c9 -8 17 -23 17 -34 0 -24 -35 -58 -60 -58 -18 0 -20 7 -20 61 0 58 1 60
23 53 12 -3 30 -13 40 -22z"/>
<path d="M29740 8601 c0 -13 -11 -23 -35 -31 -76 -25 -100 -107 -44 -154 17
-14 41 -29 55 -32 22 -6 24 -11 24 -70 0 -58 -2 -64 -20 -64 -12 0 -31 11 -44
25 -26 28 -56 33 -56 10 0 -24 46 -65 81 -72 19 -3 34 -14 36 -25 6 -22 23
-24 23 -3 0 9 8 18 18 21 56 19 74 30 87 55 32 60 10 109 -61 139 l-44 19 0
55 c0 30 3 57 8 59 14 9 54 -13 59 -33 7 -27 43 -27 43 0 0 27 -43 67 -81 75
-20 5 -29 13 -29 26 0 10 -4 19 -10 19 -5 0 -10 -9 -10 -19z m0 -121 c0 -27
-4 -51 -9 -55 -5 -3 -22 5 -37 18 -32 28 -28 67 8 84 33 15 38 8 38 -47z m83
-138 c9 -8 17 -23 17 -34 0 -24 -35 -58 -60 -58 -18 0 -20 7 -20 61 0 58 1 60
23 53 12 -3 30 -13 40 -22z"/>
<path d="M27073 8561 c-33 -21 -53 -49 -53 -75 0 -28 35 -18 47 14 19 50 103
54 125 5 17 -39 3 -67 -87 -166 -46 -52 -84 -102 -85 -111 0 -16 12 -18 115
-18 108 0 115 1 115 20 0 18 -7 20 -86 20 l-86 0 53 58 c117 128 134 174 82
232 -37 41 -94 50 -140 21z"/>
<path d="M30013 8565 c-32 -14 -53 -41 -53 -69 0 -24 34 -19 45 6 22 51 111
48 129 -4 13 -37 -12 -74 -58 -82 -47 -9 -46 -32 0 -39 104 -17 97 -132 -8
-132 -32 0 -45 6 -62 28 -24 30 -56 36 -56 11 0 -8 13 -29 29 -45 25 -24 37
-29 81 -29 56 0 104 20 120 49 27 51 -2 131 -46 131 -11 0 -7 9 15 29 49 46
37 116 -24 146 -40 18 -70 19 -112 0z"/>
<path d="M30443 8561 c-33 -21 -53 -49 -53 -75 0 -28 35 -18 47 14 19 50 103
54 125 5 17 -39 3 -67 -87 -166 -46 -52 -84 -102 -85 -111 0 -16 12 -18 115
-18 108 0 115 1 115 20 0 18 -7 20 -86 20 l-86 0 53 58 c117 128 134 174 82
232 -37 41 -94 50 -140 21z"/>
<path d="M26823 8542 c-30 -19 -43 -34 -43 -50 0 -23 0 -23 45 8 l45 31 0
-161 c0 -153 1 -160 20 -160 19 0 20 7 20 180 l0 180 -22 0 c-13 0 -42 -13
-65 -28z"/>
<path d="M27453 8542 c-30 -19 -43 -34 -43 -50 0 -23 0 -23 45 8 l45 31 0
-161 c0 -153 1 -160 20 -160 19 0 20 7 20 180 l0 180 -22 0 c-13 0 -42 -13
-65 -28z"/>
<path d="M27810 8515 c0 -28 -4 -35 -20 -35 -11 0 -20 -7 -20 -15 0 -8 9 -15
20 -15 19 0 20 -7 20 -104 0 -97 2 -106 22 -120 31 -22 80 -21 76 1 -2 9 -14
20 -28 23 -24 6 -25 9 -28 103 l-3 97 31 0 c20 0 30 5 30 15 0 10 -10 15 -30
15 -28 0 -30 3 -30 35 0 28 -4 35 -20 35 -16 0 -20 -7 -20 -35z"/>
<path d="M30860 8515 c0 -28 -4 -35 -20 -35 -11 0 -20 -7 -20 -15 0 -8 9 -15
20 -15 19 0 20 -7 20 -104 0 -97 2 -106 22 -120 31 -22 80 -21 76 1 -2 9 -14
20 -28 23 -24 6 -25 9 -28 103 l-3 97 31 0 c20 0 30 5 30 15 0 10 -10 15 -30
15 -28 0 -30 3 -30 35 0 28 -4 35 -20 35 -16 0 -20 -7 -20 -35z"/>
<path d="M28063 8483 c-13 -3 -30 -14 -38 -26 l-15 -21 0 22 c0 15 -6 22 -20
22 -19 0 -20 -7 -20 -135 0 -128 1 -135 20 -135 19 0 20 7 20 95 0 88 2 98 25
120 28 29 51 31 83 9 20 -14 22 -23 22 -120 0 -97 1 -104 20 -104 19 0 20 7
20 113 0 105 -2 115 -22 134 -25 22 -61 32 -95 26z"/>
<path d="M31113 8483 c-13 -3 -30 -14 -38 -26 l-15 -21 0 22 c0 15 -6 22 -20
22 -19 0 -20 -7 -20 -135 0 -128 1 -135 20 -135 19 0 20 7 20 95 0 88 2 98 25
120 28 29 51 31 83 9 20 -14 22 -23 22 -120 0 -97 1 -104 20 -104 19 0 20 7
20 113 0 105 -2 115 -22 134 -25 22 -61 32 -95 26z"/>
<path d="M27324 8256 c-10 -26 4 -48 28 -44 17 2 23 10 23 28 0 18 -6 26 -23
28 -13 2 -25 -3 -28 -12z"/>
<path d="M30264 8256 c-10 -26 4 -48 28 -44 17 2 23 10 23 28 0 18 -6 26 -23
28 -13 2 -25 -3 -28 -12z"/>
<path d="M26922 7973 c-12 -2 -37 -19 -56 -36 -82 -78 -71 -251 20 -308 42
-25 128 -26 170 0 37 22 64 76 64 125 l0 36 -70 0 c-63 0 -70 -2 -70 -20 0
-17 7 -20 50 -20 28 0 50 -2 50 -5 0 -3 -6 -21 -14 -40 -38 -91 -176 -68 -207
35 -33 110 43 219 137 196 27 -7 68 -42 75 -65 3 -7 15 -11 27 -9 22 3 22 3 5
38 -29 57 -104 88 -181 73z"/>
<path d="M27490 7790 c0 -173 1 -180 20 -180 19 0 20 7 20 180 0 173 -1 180
-20 180 -19 0 -20 -7 -20 -180z"/>
<path d="M27800 7903 l0 -66 -24 22 c-28 26 -82 32 -119 12 -75 -40 -79 -192
-7 -248 26 -21 101 -16 127 9 l23 21 0 -21 c0 -15 6 -22 20 -22 19 0 20 7 20
180 0 173 -1 180 -20 180 -18 0 -20 -7 -20 -67z m-43 -68 c53 -37 48 -152 -8
-184 -62 -34 -115 22 -106 113 7 75 60 109 114 71z"/>
<path d="M29930 7789 l0 -181 88 4 c72 3 94 8 120 27 49 35 66 75 67 156 0
127 -53 175 -195 175 l-80 0 0 -181z m178 127 c67 -35 80 -164 23 -229 -25
-27 -36 -31 -95 -35 l-66 -4 0 147 0 148 54 -6 c30 -3 67 -12 84 -21z"/>
<path d="M30580 7915 c0 -28 -4 -35 -20 -35 -11 0 -20 -7 -20 -15 0 -8 9 -15
20 -15 19 0 20 -7 20 -104 0 -97 2 -106 22 -120 31 -22 80 -21 76 1 -2 9 -14
20 -28 23 -24 6 -25 9 -28 103 l-3 97 31 0 c20 0 30 5 30 15 0 10 -10 15 -30
15 -28 0 -30 3 -30 35 0 28 -4 35 -20 35 -16 0 -20 -7 -20 -35z"/>
<path d="M27271 7879 c-18 -4 -45 -19 -60 -33 -23 -24 -26 -34 -26 -102 0 -73
1 -77 33 -105 26 -23 41 -29 80 -29 79 0 122 48 122 135 0 97 -62 153 -149
134z m62 -40 c30 -14 47 -48 47 -97 0 -64 -46 -109 -101 -97 -53 12 -77 101
-44 165 21 40 52 50 98 29z"/>
<path d="M30352 7879 c-33 -7 -72 -34 -72 -51 0 -19 30 -19 51 1 42 39 114 19
107 -29 -3 -21 -11 -25 -69 -35 -80 -13 -99 -26 -99 -72 0 -48 15 -71 55 -82
39 -11 72 -5 98 17 15 14 17 13 17 -1 0 -10 8 -17 20 -17 19 0 20 7 20 113 0
105 -2 115 -22 134 -27 24 -61 32 -106 22z m88 -168 c0 -33 -39 -71 -72 -71
-33 0 -58 19 -58 45 0 27 10 35 54 46 64 15 76 12 76 -20z"/>
<path d="M30812 7879 c-33 -7 -72 -34 -72 -51 0 -19 30 -19 51 1 42 39 114 19
107 -29 -3 -21 -11 -25 -69 -35 -80 -13 -99 -26 -99 -72 0 -48 15 -71 55 -82
39 -11 72 -5 98 17 15 14 17 13 17 -1 0 -10 8 -17 20 -17 19 0 20 7 20 113 0
105 -2 115 -22 134 -27 24 -61 32 -106 22z m88 -168 c0 -33 -39 -71 -72 -71
-33 0 -58 19 -58 45 0 27 10 35 54 46 64 15 76 12 76 -20z"/>
</g>
</svg>
