<?xml version="1.0" standalone="no"?>
<!DOCTYPE svg PUBLIC "-//W3C//DTD SVG 20010904//EN"
 "http://www.w3.org/TR/2001/REC-SVG-20010904/DTD/svg10.dtd">
<svg version="1.0" xmlns="http://www.w3.org/2000/svg"
 width="3183.000000pt" height="1908.000000pt" viewBox="0 0 3183.000000 1908.000000"
 preserveAspectRatio="xMidYMid meet">

<g transform="translate(0.000000,1908.000000) scale(0.100000,-0.100000)"
fill="#000000" stroke="none">
<path d="M27415 18839 c-2259 -83 -4408 -1061 -6001 -2730 -1362 -1427 -2231
-3242 -2498 -5221 -103 -762 -112 -1598 -25 -2363 241 -2128 1175 -4081 2664
-5570 408 -408 853 -778 1310 -1087 1176 -799 2508 -1293 3915 -1453 331 -37
544 -48 955 -48 427 -1 651 11 1009 53 1004 118 1989 414 2891 870 l190 96 3
8217 2 8218 -237 117 c-1138 563 -2289 854 -3568 902 -292 11 -298 11 -610 -1z
m-725 -9873 c0 -18 7 -25 31 -30 34 -7 89 -56 89 -80 0 -24 -40 -19 -61 8 -10
13 -28 26 -39 29 -19 5 -20 0 -20 -63 0 -67 1 -69 28 -75 45 -10 92 -55 98
-95 8 -50 -28 -101 -84 -118 -30 -10 -42 -19 -42 -33 0 -10 -7 -19 -15 -19 -8
0 -15 8 -15 18 0 13 -12 22 -39 31 -40 11 -91 61 -91 87 0 24 41 15 70 -16 47
-50 60 -41 60 40 l0 70 -40 16 c-73 29 -97 83 -65 144 15 30 61 60 90 60 9 0
15 9 15 25 0 16 6 25 15 25 9 0 15 -9 15 -24z m403 -46 c53 -42 55 -122 5
-161 l-21 -17 21 -7 c27 -8 52 -54 52 -94 0 -66 -86 -120 -168 -105 -63 12
-136 104 -83 104 11 0 33 -13 49 -30 37 -37 86 -40 126 -9 55 43 14 119 -64
119 -37 0 -41 2 -38 23 2 17 11 23 42 27 28 4 45 13 60 33 19 26 19 30 5 55
-21 39 -60 50 -104 29 -19 -9 -35 -23 -35 -32 0 -9 -9 -15 -25 -15 -31 0 -32
18 -4 54 27 35 52 45 110 45 32 1 54 -5 72 -19z m334 0 c38 -23 56 -74 42
-123 -5 -17 -44 -73 -88 -122 l-79 -90 89 -3 c81 -2 89 -5 89 -22 0 -19 -7
-20 -125 -20 -113 0 -125 2 -125 18 0 10 39 60 86 112 85 94 114 135 114 165
0 24 -46 65 -73 65 -31 0 -77 -36 -77 -61 0 -14 -7 -19 -25 -19 -29 0 -32 17
-10 60 30 58 120 78 182 40z m359 -14 c19 -19 34 -41 34 -50 0 -26 -36 -19
-68 14 -33 32 -46 35 -87 20 -28 -11 -64 -77 -65 -118 l0 -24 31 26 c52 44
135 30 174 -31 26 -39 25 -115 -1 -151 -63 -85 -181 -74 -231 21 -23 45 -23
168 0 229 26 68 66 98 129 98 44 0 54 -4 84 -34z m474 9 c0 -25 -1 -25 -85
-25 -83 0 -85 -1 -85 -24 0 -13 -3 -38 -6 -56 -7 -30 -6 -32 14 -21 49 26 124
5 157 -46 26 -39 26 -114 -1 -150 -51 -71 -140 -79 -201 -18 -40 40 -43 65 -8
65 14 0 25 -4 25 -10 0 -23 41 -50 75 -50 61 0 99 61 75 121 -19 44 -42 52
-123 44 l-70 -6 7 63 c4 35 10 80 13 101 l6 37 103 0 104 0 0 -25z m320 -40
c0 -32 2 -35 30 -35 23 0 30 -4 30 -20 0 -16 -7 -20 -30 -20 l-30 0 0 -98 c0
-100 7 -122 41 -122 16 0 34 -28 24 -38 -13 -13 -70 -1 -91 19 -22 21 -24 30
-24 131 0 101 -1 108 -20 108 -13 0 -20 7 -20 20 0 13 7 20 20 20 16 0 20 7
20 35 0 31 3 35 25 35 22 0 25 -4 25 -35z m180 -55 l0 -21 22 21 c14 13 35 20
61 20 86 0 107 -37 107 -190 l0 -110 -25 0 -25 0 0 110 c0 97 -2 112 -20 130
-27 27 -66 25 -95 -5 -23 -23 -25 -31 -25 -130 l0 -105 -25 0 -25 0 0 150 0
150 25 0 c18 0 25 -5 25 -20z m-820 -225 c20 -25 8 -50 -25 -50 -21 0 -31 5
-33 18 -4 21 14 47 33 47 7 0 18 -7 25 -15z m-2164 -321 c36 -17 66 -53 78
-91 6 -20 4 -23 -18 -23 -18 0 -30 8 -40 28 -29 55 -112 74 -163 36 -62 -45
-80 -140 -43 -222 35 -78 136 -95 193 -32 15 17 27 39 27 50 0 17 -7 20 -50
20 -47 0 -50 2 -50 25 0 24 2 25 75 25 l75 0 0 -49 c0 -53 -25 -99 -73 -135
-41 -30 -129 -29 -180 3 -90 56 -115 227 -45 316 50 63 140 84 214 49z m204
-184 l0 -200 -25 0 -25 0 0 200 0 200 25 0 25 0 0 -200z m460 124 l0 -77 26
27 c53 53 148 26 180 -50 20 -47 17 -123 -4 -164 -36 -69 -126 -88 -178 -39
l-24 22 0 -21 c0 -15 -6 -22 -20 -22 -19 0 -20 7 -20 200 0 193 1 200 20 200
18 0 20 -7 20 -76z m640 -124 l0 -200 -25 0 -25 0 0 200 0 200 25 0 25 0 0
-200z m1100 0 l0 -200 -25 0 -25 0 0 200 0 200 25 0 25 0 0 -200z m910 135 c0
-32 2 -35 30 -35 23 0 30 -4 30 -20 0 -16 -7 -20 -30 -20 l-30 0 0 -98 c0
-100 7 -122 41 -122 16 0 34 -28 24 -38 -13 -13 -70 -1 -91 19 -22 21 -24 30
-24 131 0 101 -1 108 -20 108 -13 0 -20 7 -20 20 0 13 7 20 20 20 16 0 20 7
20 35 0 31 3 35 25 35 22 0 25 -4 25 -35z m500 0 c0 -32 2 -35 30 -35 23 0 30
-4 30 -20 0 -16 -7 -20 -30 -20 l-30 0 0 -98 c0 -100 7 -122 41 -122 16 0 34
-28 24 -38 -13 -13 -70 -1 -91 19 -22 21 -24 30 -24 131 0 101 -1 108 -20 108
-13 0 -20 7 -20 20 0 13 7 20 20 20 16 0 20 7 20 35 0 31 3 35 25 35 22 0 25
-4 25 -35z m-3334 -54 c61 -37 82 -162 39 -228 -37 -56 -117 -77 -174 -45 -47
26 -71 74 -71 143 0 63 27 114 70 136 37 19 101 16 136 -6z m646 8 c34 -18 48
-70 48 -184 l0 -105 -25 0 c-15 0 -25 6 -25 15 0 11 -7 10 -35 -7 -68 -39
-155 0 -155 69 0 65 25 83 133 99 55 7 66 23 43 59 -20 31 -63 33 -99 5 -53
-42 -88 -13 -38 32 26 23 40 28 82 28 28 0 59 -5 71 -11z m458 -5 c0 -14 2
-14 22 0 12 9 35 16 50 16 22 0 28 -5 28 -22 0 -19 -6 -23 -30 -24 -59 -2 -70
-24 -70 -146 l0 -108 -25 0 -25 0 0 150 0 150 25 0 c16 0 25 -6 25 -16z m344
-5 c35 -28 56 -70 56 -114 l0 -35 -105 0 c-99 0 -105 -1 -105 -20 0 -60 99
-93 147 -48 17 16 27 19 44 12 l20 -9 -20 -27 c-39 -49 -128 -60 -187 -22 -56
37 -73 162 -31 225 12 18 34 39 47 46 39 20 103 16 134 -8z m308 10 c34 -18
48 -70 48 -184 l0 -105 -25 0 c-15 0 -25 6 -25 15 0 11 -7 10 -35 -7 -68 -39
-155 0 -155 69 0 65 25 83 133 99 55 7 66 23 43 59 -20 31 -63 33 -99 5 -53
-42 -88 -13 -38 32 26 23 40 28 82 28 28 0 59 -5 71 -11z m602 -10 c35 -28 56
-70 56 -114 l0 -35 -105 0 c-99 0 -105 -1 -105 -20 0 -60 99 -93 147 -48 17
16 27 19 44 12 l20 -9 -20 -27 c-39 -49 -128 -60 -187 -22 -56 37 -73 162 -31
225 12 18 34 39 47 46 39 20 103 16 134 -8z m300 -4 c14 -13 26 -29 26 -35 0
-21 -31 -22 -54 -1 -39 36 -106 21 -106 -24 0 -21 8 -27 70 -45 101 -30 126
-77 75 -139 -46 -54 -164 -49 -195 8 -21 40 24 60 48 21 14 -24 78 -28 106 -7
34 25 16 50 -51 72 -80 26 -103 46 -103 88 0 57 37 86 111 87 35 0 52 -6 73
-25z m488 14 c34 -18 48 -70 48 -184 l0 -105 -25 0 c-15 0 -25 6 -25 15 0 11
-7 10 -35 -7 -68 -39 -155 0 -155 69 0 65 25 83 133 99 55 7 66 23 43 59 -20
31 -63 33 -99 5 -53 -42 -88 -13 -38 32 26 23 40 28 82 28 28 0 59 -5 71 -11z
m512 -10 c35 -28 56 -70 56 -114 l0 -35 -105 0 c-99 0 -105 -1 -105 -20 0 -60
99 -93 147 -48 17 16 27 19 44 12 l20 -9 -20 -27 c-39 -49 -128 -60 -187 -22
-56 37 -73 162 -31 225 12 18 34 39 47 46 39 20 103 16 134 -8z"/>
<path d="M26607 8872 c-31 -34 -15 -77 36 -95 15 -6 17 1 17 53 0 52 -3 60
-18 60 -11 0 -26 -8 -35 -18z"/>
<path d="M26690 8646 c0 -75 13 -84 55 -41 40 39 27 81 -32 99 -22 7 -23 5
-23 -58z"/>
<path d="M27673 8752 c-13 -2 -32 -15 -43 -29 -64 -81 33 -186 113 -123 71 56
20 167 -70 152z"/>
<path d="M26483 8135 c-47 -33 -50 -138 -7 -186 23 -26 85 -25 109 1 23 25 32
110 16 149 -20 47 -77 64 -118 36z"/>
<path d="M26143 8138 c-46 -22 -61 -129 -25 -178 36 -47 115 -39 138 15 44
106 -25 206 -113 163z"/>
<path d="M26816 8020 c-43 -8 -68 -33 -59 -58 9 -25 24 -32 65 -32 42 0 78 35
78 76 0 26 -12 28 -84 14z"/>
<path d="M27593 8140 c-23 -10 -43 -39 -43 -64 0 -13 14 -16 80 -16 74 0 80 2
80 20 0 12 -11 32 -25 45 -25 26 -54 30 -92 15z"/>
<path d="M27926 8020 c-43 -8 -68 -33 -59 -58 9 -25 24 -32 65 -32 42 0 78 35
78 76 0 26 -12 28 -84 14z"/>
<path d="M28503 8140 c-23 -10 -43 -39 -43 -64 0 -13 14 -16 80 -16 74 0 80 2
80 20 0 12 -11 32 -25 45 -25 26 -54 30 -92 15z"/>
<path d="M29316 8020 c-43 -8 -68 -33 -59 -58 9 -25 24 -32 65 -32 42 0 78 35
78 76 0 26 -12 28 -84 14z"/>
<path d="M29803 8140 c-23 -10 -43 -39 -43 -64 0 -13 14 -16 80 -16 74 0 80 2
80 20 0 12 -11 32 -25 45 -25 26 -54 30 -92 15z"/>
<path d="M8430 14690 c0 -11 5 -20 10 -20 6 0 10 9 10 20 0 11 -4 20 -10 20
-5 0 -10 -9 -10 -20z"/>
<path d="M13830 12694 c-376 -34 -759 -143 -1090 -309 -394 -199 -808 -554
-1072 -922 -679 -944 -788 -2192 -284 -3238 417 -866 1189 -1476 2101 -1660
357 -73 769 -74 1125 -4 573 112 1085 386 1510 809 206 204 350 390 499 643
191 325 331 730 391 1132 27 181 38 545 21 735 -111 1257 -934 2309 -2099
2684 -282 90 -507 126 -827 131 -126 1 -250 1 -275 -1z m-790 -3848 c0 -18 7
-25 31 -30 34 -7 89 -56 89 -80 0 -24 -40 -19 -61 8 -10 13 -28 26 -39 29 -19
5 -20 0 -20 -63 0 -67 1 -69 28 -75 45 -10 92 -55 98 -95 8 -50 -28 -101 -84
-118 -30 -10 -42 -19 -42 -33 0 -10 -7 -19 -15 -19 -8 0 -15 8 -15 18 0 13
-12 22 -39 31 -40 11 -91 61 -91 87 0 24 41 15 70 -16 47 -50 60 -41 60 40 l0
70 -40 16 c-73 29 -97 83 -65 144 15 30 61 60 90 60 9 0 15 9 15 25 0 16 6 25
15 25 9 0 15 -9 15 -24z m330 -226 l0 -200 -25 0 -25 0 0 171 0 171 -27 -17
c-80 -52 -73 -50 -73 -21 0 20 12 33 52 61 29 19 63 35 75 35 l23 0 0 -200z
m329 174 c52 -44 77 -173 50 -267 -6 -22 -25 -55 -43 -75 -30 -32 -39 -36 -85
-36 -82 0 -127 55 -138 168 -8 86 11 158 52 201 29 31 38 35 83 35 40 0 57 -6
81 -26z m329 6 c48 -29 66 -79 65 -176 -1 -134 -49 -206 -139 -208 -50 -1 -91
19 -110 56 -20 38 -18 48 9 48 16 0 28 -9 35 -25 13 -28 54 -42 90 -29 35 13
61 52 67 104 3 25 2 39 -1 32 -10 -21 -61 -42 -103 -42 -122 0 -162 186 -52
245 38 21 101 18 139 -5z m469 0 c38 -23 56 -74 42 -123 -5 -17 -44 -73 -88
-122 l-79 -90 89 -3 c81 -2 89 -5 89 -22 0 -19 -7 -20 -125 -20 -113 0 -125 2
-125 18 0 10 39 60 86 112 85 94 114 135 114 165 0 24 -46 65 -73 65 -31 0
-77 -36 -77 -61 0 -14 -7 -19 -25 -19 -29 0 -32 17 -10 60 30 58 120 78 182
40z m363 -45 c0 -32 2 -35 30 -35 23 0 30 -4 30 -20 0 -16 -7 -20 -30 -20
l-30 0 0 -98 c0 -100 7 -122 41 -122 16 0 34 -28 24 -38 -13 -13 -70 -1 -91
19 -22 21 -24 30 -24 131 0 101 -1 108 -20 108 -13 0 -20 7 -20 20 0 13 7 20
20 20 16 0 20 7 20 35 0 31 3 35 25 35 22 0 25 -4 25 -35z m180 -55 l0 -21 22
21 c14 13 35 20 61 20 86 0 107 -37 107 -190 l0 -110 -25 0 -25 0 0 110 c0 97
-2 112 -20 130 -27 27 -66 25 -95 -5 -23 -23 -25 -31 -25 -130 l0 -105 -25 0
-25 0 0 150 0 150 25 0 c18 0 25 -5 25 -20z m-830 -225 c20 -25 8 -50 -25 -50
-21 0 -31 5 -33 18 -4 21 14 47 33 47 7 0 18 -7 25 -15z m-550 -310 c18 -21 5
-45 -25 -45 -14 0 -28 7 -31 15 -7 17 12 45 31 45 7 0 18 -7 25 -15z m-800
-13 c65 -32 79 -104 31 -153 -17 -17 -24 -29 -16 -29 25 0 55 -51 55 -92 0
-85 -38 -108 -175 -108 l-95 0 0 200 0 200 83 0 c58 0 92 -5 117 -18z m190
-192 c0 -98 2 -112 21 -131 16 -16 28 -20 52 -15 55 11 62 26 65 146 4 109 4
110 28 110 l24 0 0 -150 0 -150 -25 0 c-20 0 -25 5 -25 25 l0 24 -25 -24 c-37
-38 -96 -37 -135 1 -24 23 -25 31 -28 149 l-4 125 26 0 26 0 0 -110z m454 85
c14 -13 26 -29 26 -35 0 -21 -31 -22 -54 -1 -39 36 -106 21 -106 -24 0 -21 8
-27 70 -45 101 -30 126 -77 75 -139 -46 -54 -164 -49 -195 8 -21 40 24 60 48
21 14 -24 78 -28 106 -7 34 25 16 50 -51 72 -80 26 -103 46 -103 88 0 57 37
86 111 87 35 0 52 -6 73 -25z m156 -125 l0 -150 -25 0 -25 0 0 150 0 150 25 0
25 0 0 -150z m120 130 l0 -21 22 21 c14 13 35 20 61 20 86 0 107 -37 107 -190
l0 -110 -25 0 -25 0 0 110 c0 97 -2 112 -20 130 -27 27 -66 25 -95 -5 -23 -23
-25 -31 -25 -130 l0 -105 -25 0 -25 0 0 150 0 150 25 0 c18 0 25 -5 25 -20z
m464 -1 c35 -28 56 -70 56 -114 l0 -35 -105 0 c-99 0 -105 -1 -105 -20 0 -60
99 -93 147 -48 17 16 27 19 44 12 l20 -9 -20 -27 c-39 -49 -128 -60 -187 -22
-56 37 -73 162 -31 225 12 18 34 39 47 46 39 20 103 16 134 -8z m310 -4 c14
-13 26 -29 26 -35 0 -21 -31 -22 -54 -1 -39 36 -106 21 -106 -24 0 -21 8 -27
70 -45 101 -30 126 -77 75 -139 -46 -54 -164 -49 -195 8 -21 40 24 60 48 21
14 -24 78 -28 106 -7 34 25 16 50 -51 72 -80 26 -103 46 -103 88 0 57 37 86
111 87 35 0 52 -6 73 -25z m290 0 c14 -13 26 -29 26 -35 0 -21 -31 -22 -54 -1
-39 36 -106 21 -106 -24 0 -21 8 -27 70 -45 101 -30 126 -77 75 -139 -46 -54
-164 -49 -195 8 -21 40 24 60 48 21 14 -24 78 -28 106 -7 34 25 16 50 -51 72
-80 26 -103 46 -103 88 0 57 37 86 111 87 35 0 52 -6 73 -25z m290 4 c35 -28
56 -70 56 -114 l0 -35 -105 0 c-99 0 -105 -1 -105 -20 0 -60 99 -93 147 -48
17 16 27 19 44 12 l20 -9 -20 -27 c-39 -49 -128 -60 -187 -22 -56 37 -73 162
-31 225 12 18 34 39 47 46 39 20 103 16 134 -8z m310 -4 c14 -13 26 -29 26
-35 0 -21 -31 -22 -54 -1 -39 36 -106 21 -106 -24 0 -21 8 -27 70 -45 101 -30
126 -77 75 -139 -46 -54 -164 -49 -195 8 -21 40 24 60 48 21 14 -24 78 -28
106 -7 34 25 16 50 -51 72 -80 26 -103 46 -103 88 0 57 37 86 111 87 35 0 52
-6 73 -25z"/>
<path d="M12957 8752 c-31 -34 -15 -77 36 -95 15 -6 17 1 17 53 0 52 -3 60
-18 60 -11 0 -26 -8 -35 -18z"/>
<path d="M13040 8526 c0 -75 13 -84 55 -41 40 39 27 81 -32 99 -22 7 -23 5
-23 -58z"/>
<path d="M13570 8752 c-32 -33 -46 -96 -37 -172 11 -93 49 -132 113 -116 75
19 88 240 17 296 -35 27 -59 25 -93 -8z"/>
<path d="M13920 8767 c-33 -17 -53 -60 -45 -97 8 -36 48 -70 82 -70 36 0 83
51 83 90 0 22 -9 41 -29 61 -32 32 -53 35 -91 16z"/>
<path d="M12710 8054 l0 -66 60 4 c68 5 100 27 100 68 0 43 -28 60 -98 60
l-62 0 0 -66z"/>
<path d="M12710 7880 l0 -70 44 0 c105 0 150 32 127 89 -16 37 -48 51 -116 51
l-55 0 0 -70z"/>
<path d="M14133 8020 c-23 -10 -43 -39 -43 -64 0 -13 14 -16 80 -16 74 0 80 2
80 20 0 12 -11 32 -25 45 -25 26 -54 30 -92 15z"/>
<path d="M15023 8020 c-23 -10 -43 -39 -43 -64 0 -13 14 -16 80 -16 74 0 80 2
80 20 0 12 -11 32 -25 45 -25 26 -54 30 -92 15z"/>
<path d="M7646 9934 c-147 -47 -238 -172 -238 -329 0 -135 73 -255 190 -312
49 -24 69 -28 142 -28 70 0 94 5 135 25 67 33 131 98 163 168 23 49 27 70 27
147 0 78 -4 97 -28 147 -74 151 -243 230 -391 182z"/>
<path d="M3136 9668 c-58 -50 -24 -148 51 -148 102 0 113 150 12 166 -28 5
-41 1 -63 -18z"/>
<path d="M2430 8960 c0 -11 -5 -20 -11 -20 -27 0 -81 -35 -95 -63 -19 -35 -12
-87 14 -110 10 -9 34 -23 55 -32 l37 -15 0 -70 c0 -62 -2 -70 -19 -70 -11 0
-31 14 -44 30 -24 28 -67 42 -67 21 0 -4 10 -23 23 -42 20 -29 38 -40 95 -55
6 -2 12 -13 12 -24 0 -27 28 -26 32 1 2 14 15 25 41 34 49 17 64 30 77 70 18
55 -8 101 -70 128 l-50 21 0 68 c0 37 2 68 5 68 18 0 65 -33 65 -45 0 -9 10
-15 25 -15 16 0 25 6 25 16 0 24 -55 73 -89 80 -21 5 -31 12 -31 25 0 11 -7
19 -15 19 -8 0 -15 -9 -15 -20z m0 -125 c0 -36 -4 -65 -9 -65 -20 0 -61 43
-61 65 0 22 41 65 61 65 5 0 9 -29 9 -65z m84 -146 c15 -12 26 -30 26 -44 0
-14 -11 -32 -26 -44 -45 -36 -54 -28 -54 44 0 72 9 80 54 44z"/>
<path d="M6920 8960 c0 -11 -5 -20 -11 -20 -27 0 -81 -35 -95 -63 -19 -35 -12
-87 14 -110 10 -9 34 -23 55 -32 l37 -15 0 -70 c0 -62 -2 -70 -19 -70 -11 0
-31 14 -44 30 -24 28 -67 42 -67 21 0 -4 10 -23 23 -42 20 -29 38 -40 95 -55
6 -2 12 -13 12 -24 0 -27 28 -26 32 1 2 14 15 25 41 34 49 17 64 30 77 70 18
55 -8 101 -70 128 l-50 21 0 68 c0 37 2 68 5 68 18 0 65 -33 65 -45 0 -9 10
-15 25 -15 16 0 25 6 25 16 0 24 -55 73 -89 80 -21 5 -31 12 -31 25 0 11 -7
19 -15 19 -8 0 -15 -9 -15 -20z m0 -125 c0 -36 -4 -65 -9 -65 -20 0 -61 43
-61 65 0 22 41 65 61 65 5 0 9 -29 9 -65z m84 -146 c15 -12 26 -30 26 -44 0
-14 -11 -32 -26 -44 -45 -36 -54 -28 -54 44 0 72 9 80 54 44z"/>
<path d="M2723 8920 c-53 -32 -70 -80 -28 -80 15 0 25 6 25 15 0 8 11 22 24
30 58 38 141 -12 120 -72 -7 -21 -20 -32 -57 -43 -32 -10 -47 -20 -47 -32 0
-14 8 -18 34 -18 46 0 86 -33 86 -71 0 -44 -31 -69 -85 -69 -44 0 -85 24 -85
50 0 6 -11 10 -25 10 -35 0 -32 -25 9 -66 31 -31 40 -34 90 -34 32 0 70 7 86
15 33 17 60 61 60 98 0 29 -33 73 -60 82 -19 6 -18 8 10 32 24 20 30 33 30 65
0 21 -5 48 -10 59 -26 48 -121 64 -177 29z"/>
<path d="M3199 8925 c-22 -12 -59 -68 -59 -89 0 -3 11 -6 25 -6 16 0 25 6 25
15 0 25 38 55 69 55 17 0 42 -10 57 -23 45 -39 30 -76 -81 -199 -52 -58 -95
-113 -95 -122 0 -14 17 -16 125 -16 118 0 125 1 125 20 0 18 -8 20 -92 22
l-93 3 61 65 c109 115 133 168 103 233 -23 51 -112 73 -170 42z"/>
<path d="M7193 8903 c-32 -22 -53 -43 -53 -54 0 -25 8 -24 52 6 20 14 39 25
42 25 4 0 6 -76 6 -170 l0 -170 25 0 25 0 0 200 0 200 -22 -1 c-13 0 -47 -16
-75 -36z"/>
<path d="M7459 8925 c-22 -12 -59 -68 -59 -89 0 -3 11 -6 25 -6 16 0 25 6 25
15 0 25 38 55 69 55 17 0 42 -10 57 -23 45 -39 30 -76 -81 -199 -52 -58 -95
-113 -95 -122 0 -14 17 -16 125 -16 118 0 125 1 125 20 0 18 -8 20 -92 22
l-93 3 61 65 c109 115 133 168 103 233 -23 51 -112 73 -170 42z"/>
<path d="M7873 8903 c-32 -22 -53 -43 -53 -54 0 -25 8 -24 52 6 20 14 39 25
42 25 4 0 6 -76 6 -170 l0 -170 25 0 25 0 0 200 0 200 -22 -1 c-13 0 -47 -16
-75 -36z"/>
<path d="M3650 8875 c0 -28 -4 -35 -20 -35 -13 0 -20 -7 -20 -20 0 -13 7 -20
20 -20 19 0 20 -7 20 -104 0 -89 3 -107 21 -130 16 -20 29 -26 59 -26 33 0 37
3 33 19 -3 12 -15 21 -32 23 l-26 3 -3 108 -3 107 31 0 c23 0 30 4 30 20 0 16
-7 20 -30 20 -28 0 -30 3 -30 35 0 31 -3 35 -25 35 -22 0 -25 -4 -25 -35z"/>
<path d="M8260 8875 c0 -28 -4 -35 -20 -35 -13 0 -20 -7 -20 -20 0 -13 7 -20
20 -20 19 0 20 -7 20 -104 0 -89 3 -107 21 -130 16 -20 29 -26 59 -26 33 0 37
3 33 19 -3 12 -15 21 -32 23 l-26 3 -3 108 -3 107 31 0 c23 0 30 4 30 20 0 16
-7 20 -30 20 -28 0 -30 3 -30 35 0 31 -3 35 -25 35 -22 0 -25 -4 -25 -35z"/>
<path d="M3830 8690 l0 -150 25 0 25 0 0 108 c0 100 2 110 23 130 29 27 71 28
97 2 18 -18 20 -33 20 -130 l0 -110 25 0 c25 0 25 0 25 98 0 157 -23 202 -101
202 -26 0 -47 -8 -68 -26 l-31 -26 0 26 c0 19 -5 26 -20 26 -19 0 -20 -7 -20
-150z"/>
<path d="M8440 8690 l0 -150 25 0 25 0 0 108 c0 100 2 110 23 130 29 27 71 28
97 2 18 -18 20 -33 20 -130 l0 -110 25 0 c25 0 25 0 25 98 0 157 -23 202 -101
202 -26 0 -47 -8 -68 -26 l-31 -26 0 26 c0 19 -5 26 -20 26 -19 0 -20 -7 -20
-150z"/>
<path d="M3005 8596 c-12 -9 -15 -19 -10 -35 9 -30 59 -26 63 6 4 29 -28 47
-53 29z"/>
<path d="M7745 8596 c-12 -9 -15 -19 -10 -35 9 -30 59 -26 63 6 4 29 -28 47
-53 29z"/>
<path d="M2640 8091 l0 -201 83 0 c98 0 158 24 194 78 42 64 42 181 0 243 -36
54 -75 70 -182 76 l-95 6 0 -202z m202 131 c37 -22 58 -69 58 -131 0 -109 -44
-154 -150 -155 l-65 -1 -3 145 c-1 79 0 150 3 158 7 19 117 8 157 -16z"/>
<path d="M7274 8276 c-68 -30 -111 -129 -98 -227 13 -98 80 -159 174 -159 97
0 160 62 160 158 l0 42 -75 0 c-68 0 -75 -2 -75 -20 0 -17 7 -20 50 -20 43 0
50 -3 50 -20 0 -83 -100 -128 -178 -80 -89 54 -81 240 12 284 18 9 41 16 50
16 35 0 85 -30 101 -59 11 -22 23 -31 40 -31 30 0 31 2 4 50 -40 70 -137 100
-215 66z"/>
<path d="M7910 8090 l0 -200 25 0 25 0 0 200 0 200 -25 0 -25 0 0 -200z"/>
<path d="M8250 8214 l0 -76 -32 27 c-27 23 -39 26 -75 22 -24 -2 -53 -13 -65
-23 -66 -59 -63 -201 6 -256 31 -25 110 -24 136 2 11 11 22 20 25 20 3 0 5 -9
5 -20 0 -13 7 -20 20 -20 19 0 20 7 20 200 0 193 -1 200 -20 200 -18 0 -20 -7
-20 -76z m-43 -79 c31 -22 47 -85 33 -133 -12 -48 -41 -75 -80 -75 -37 0 -66
25 -81 70 -32 98 53 190 128 138z"/>
<path d="M3340 8225 c0 -28 -4 -35 -20 -35 -13 0 -20 -7 -20 -20 0 -13 7 -20
20 -20 19 0 20 -7 20 -104 0 -89 3 -107 21 -130 16 -20 29 -26 59 -26 33 0 37
3 33 19 -3 12 -15 21 -32 23 l-26 3 -3 108 -3 107 31 0 c23 0 30 4 30 20 0 16
-7 20 -30 20 -28 0 -30 3 -30 35 0 31 -3 35 -25 35 -22 0 -25 -4 -25 -35z"/>
<path d="M3060 8168 c-19 -13 -35 -29 -38 -35 -7 -23 27 -25 54 -4 34 26 85
27 108 2 37 -41 12 -63 -85 -76 -58 -7 -89 -35 -89 -78 0 -43 22 -73 65 -87
41 -13 99 1 115 28 8 15 9 14 10 -5 0 -16 6 -23 20 -23 19 0 20 7 20 119 0 66
-3 127 -6 136 -18 46 -120 59 -174 23z m136 -194 c-13 -51 -112 -68 -136 -23
-14 25 3 57 33 64 92 21 102 22 105 2 2 -10 1 -30 -2 -43z"/>
<path d="M3560 8168 c-19 -13 -35 -29 -38 -35 -7 -23 27 -25 54 -4 34 26 85
27 108 2 37 -41 12 -63 -85 -76 -58 -7 -89 -35 -89 -78 0 -43 22 -73 65 -87
41 -13 99 1 115 28 8 15 9 14 10 -5 0 -16 6 -23 20 -23 19 0 20 7 20 119 0 66
-3 127 -6 136 -18 46 -120 59 -174 23z m136 -194 c-13 -51 -112 -68 -136 -23
-14 25 3 57 33 64 92 21 102 22 105 2 2 -10 1 -30 -2 -43z"/>
<path d="M7632 8170 c-40 -25 -62 -73 -62 -135 0 -92 51 -145 137 -145 47 0
59 4 83 28 59 60 62 169 5 230 -41 45 -112 55 -163 22z m124 -43 c57 -49 37
-184 -31 -201 -63 -16 -123 57 -110 136 14 81 85 113 141 65z"/>
</g>
</svg>
